<?xml version="1.0" standalone="no"?>
<!DOCTYPE svg PUBLIC "-//W3C//DTD SVG 20010904//EN"
 "http://www.w3.org/TR/2001/REC-SVG-20010904/DTD/svg10.dtd">
<svg version="1.0" xmlns="http://www.w3.org/2000/svg"
 width="16.000000pt" height="16.000000pt" viewBox="0 0 16.000000 16.000000"
 preserveAspectRatio="xMidYMid meet">
<metadata>
Created by potrace 1.11, written by Peter Selinger 2001-2013
</metadata>
<g transform="translate(0.000000,16.000000) scale(0.004000,-0.004000)"
fill="#000000" stroke="none">
<path d="M1395 3522 c-3 -3 -15 -6 -28 -7 -40 -4 -139 -21 -144 -25 -2 -2 -6
-3 -10 -4 -44 -11 -131 -40 -140 -48 -7 -6 -13 -7 -13 -4 0 4 -10 1 -22 -6
-13 -7 -25 -13 -28 -13 -6 -1 -125 -61 -165 -83 -16 -9 -37 -25 -46 -34 -9
-10 -18 -16 -20 -13 -3 2 -17 -6 -31 -18 -14 -12 -43 -35 -64 -52 -90 -70
-284 -284 -284 -313 0 -6 -4 -12 -8 -14 -10 -4 -90 -137 -113 -188 -8 -19 -23
-51 -32 -70 -28 -61 -49 -114 -52 -135 -2 -11 -8 -36 -15 -55 -6 -19 -14 -48
-17 -65 -8 -45 -11 -60 -13 -60 -2 0 -5 -19 -17 -100 -13 -94 -9 -426 5 -453
9 -14 9 -22 2 -22 -7 0 -8 -6 -1 -17 5 -10 10 -34 12 -53 2 -19 7 -40 11 -46
4 -6 9 -25 11 -42 2 -18 7 -35 10 -39 4 -3 7 -17 7 -30 0 -13 5 -23 11 -23 6
0 9 -6 7 -12 -3 -7 1 -24 8 -37 7 -14 11 -28 8 -33 -3 -4 0 -8 5 -8 6 0 10 -3
9 -7 0 -5 7 -26 17 -48 10 -22 18 -43 17 -47 -1 -5 2 -8 8 -8 5 0 10 -9 10
-20 0 -11 5 -20 10 -20 6 0 10 -5 10 -11 0 -6 9 -24 21 -41 12 -16 18 -32 15
-35 -3 -3 3 -13 15 -21 12 -9 19 -22 16 -32 -3 -12 0 -17 8 -13 14 5 39 -30
28 -41 -3 -3 -1 -6 5 -6 7 0 12 -7 12 -16 0 -8 4 -13 9 -9 5 3 12 -3 16 -14 3
-11 12 -22 20 -25 8 -3 15 -10 15 -15 0 -6 18 -28 40 -49 21 -22 36 -42 33
-46 -4 -3 1 -6 10 -6 8 0 19 -10 22 -21 6 -17 9 -19 16 -8 7 11 9 10 9 -3 0
-10 7 -18 15 -18 8 0 15 -5 15 -11 0 -5 -5 -7 -12 -3 -7 5 -8 3 -4 -5 5 -7 14
-10 22 -7 8 3 14 1 14 -4 0 -5 9 -12 20 -15 11 -4 17 -11 14 -17 -5 -8 -1 -9
11 -4 16 6 16 4 4 -11 -8 -9 -9 -14 -3 -10 7 4 23 -2 36 -13 14 -11 29 -16 33
-12 5 4 5 -1 2 -10 -4 -12 -2 -15 9 -11 8 3 14 -1 14 -10 0 -9 5 -19 12 -23 7
-4 8 -3 4 4 -4 7 -1 12 8 12 8 0 18 -5 22 -12 4 -7 3 -8 -4 -4 -7 4 -12 5 -12
2 0 -3 9 -10 20 -16 16 -9 19 -8 14 7 -5 16 -4 16 6 -1 10 -15 9 -20 -1 -27
-8 -5 -9 -9 -4 -9 6 0 16 5 23 12 9 9 12 9 12 -1 0 -7 4 -10 9 -6 5 3 16 -1
24 -9 8 -8 17 -12 21 -9 3 4 6 -2 6 -12 0 -14 3 -15 14 -6 10 8 16 9 21 1 3
-6 11 -8 16 -5 5 3 6 0 3 -8 -7 -19 21 -43 32 -26 5 8 3 9 -6 4 -9 -6 -11 -4
-5 5 6 9 4 11 -5 5 -9 -6 -11 -4 -5 5 6 10 12 9 25 -8 13 -16 20 -18 29 -9 9
9 13 6 17 -11 4 -12 10 -19 15 -16 5 3 6 10 3 16 -5 7 -2 8 5 4 7 -5 10 -15 7
-23 -3 -8 -1 -11 4 -8 6 3 10 1 10 -5 0 -6 4 -9 9 -6 5 4 12 0 14 -6 4 -10 6
-10 6 0 1 7 -6 15 -14 18 -8 4 -12 10 -9 15 3 5 16 -2 30 -16 14 -14 30 -25
36 -25 7 0 4 6 -6 13 -16 12 -16 14 -2 14 9 0 16 -4 16 -9 0 -5 4 -6 10 -3 6
3 7 -1 4 -9 -3 -9 -2 -16 4 -16 5 0 12 7 16 15 3 8 11 15 18 15 9 0 9 -3 -2
-10 -8 -5 -11 -12 -7 -16 3 -4 13 -2 20 4 16 13 28 6 21 -12 -3 -7 2 -13 10
-13 8 0 13 4 10 8 -2 4 5 7 16 6 22 -1 27 -13 8 -21 -7 -2 -2 -4 12 -3 16 1
24 -3 22 -11 -2 -9 2 -11 10 -5 20 12 31 11 52 -6 18 -15 18 -15 5 6 -8 14
-21 21 -34 19 -22 -4 -45 10 -45 28 0 6 5 4 10 -4 10 -16 32 -20 41 -8 3 4 15
-1 27 -12 11 -11 26 -20 32 -20 6 0 8 -5 4 -12 -4 -7 -3 -8 4 -4 7 4 12 14 12
22 0 8 4 13 9 10 5 -4 11 -1 13 6 3 8 7 6 11 -5 3 -9 1 -19 -5 -23 -7 -5 -8
-2 -3 6 6 9 4 11 -4 5 -10 -5 -10 -10 -1 -19 8 -8 13 -7 20 4 9 13 11 13 20 0
5 -8 10 -11 10 -6 0 5 -8 18 -17 29 -18 19 -17 19 5 6 12 -8 22 -18 22 -24 0
-5 5 -2 11 8 6 9 14 15 20 12 5 -4 9 0 9 7 0 7 5 5 12 -6 10 -18 11 -18 29 5
15 18 18 19 12 5 -5 -14 -3 -17 6 -11 10 6 11 2 6 -15 -5 -15 -4 -20 4 -16 6
4 11 15 11 26 0 10 7 21 16 24 8 3 12 2 9 -4 -3 -6 -1 -10 5 -10 6 0 8 -4 5
-10 -3 -6 1 -7 10 -4 13 5 13 9 3 23 -12 14 -11 14 4 3 9 -8 22 -11 27 -7 6 3
19 1 30 -5 13 -7 22 -7 26 0 4 6 10 8 15 5 5 -3 11 -1 14 4 4 5 2 12 -3 15 -5
4 -12 2 -16 -4 -4 -6 -11 -7 -17 -4 -7 5 -8 2 -3 -7 5 -8 4 -10 0 -6 -5 4 -10
13 -11 21 -3 20 46 13 63 -9 14 -18 15 -18 9 -2 -4 13 -2 17 6 14 7 -2 12 -10
10 -16 -1 -7 2 -10 8 -6 6 3 8 10 5 15 -3 4 2 10 10 14 9 3 12 12 9 23 -4 14
-4 15 4 4 5 -7 8 -21 7 -30 -1 -9 0 -10 2 -4 3 7 8 13 12 13 4 0 13 -6 20 -12
7 -7 12 -8 11 -3 -6 28 1 37 24 33 17 -4 23 -1 19 9 -3 7 0 13 7 13 6 0 8 5 4
12 -4 7 -3 8 4 4 6 -4 9 -14 6 -24 -5 -13 -4 -14 4 -3 6 8 15 10 23 6 8 -5 6
1 -4 12 -14 16 -15 23 -6 29 7 4 10 3 5 -4 -3 -6 2 -16 13 -22 14 -7 22 -7 27
2 4 6 3 8 -4 4 -6 -3 -14 -1 -18 6 -4 7 -4 10 1 6 4 -4 14 -3 21 3 8 7 14 6
20 -2 4 -8 3 -9 -4 -5 -8 5 -10 2 -6 -8 5 -13 9 -12 27 4 19 18 31 23 47 22 3
0 6 11 5 26 0 29 16 35 50 19 19 -10 19 -9 2 10 -14 16 -14 20 -2 20 8 0 12
-4 10 -8 -6 -9 21 -20 29 -12 3 4 6 15 6 25 0 10 4 18 9 18 6 0 8 -9 6 -20 -2
-12 0 -18 6 -15 5 4 6 11 3 17 -5 8 -1 9 12 4 15 -6 17 -5 7 5 -7 7 -13 17
-13 22 0 6 5 6 13 0 8 -6 21 -5 37 3 14 8 20 14 14 14 -7 0 -14 7 -18 15 -5
13 -1 13 27 -1 17 -9 29 -13 25 -9 -5 5 1 14 12 22 12 9 17 20 13 31 -6 15 -5
16 12 2 12 -10 16 -11 11 -2 -12 19 -15 62 -4 56 5 -3 7 -12 4 -20 -3 -7 -1
-16 4 -19 6 -4 10 1 10 10 0 10 5 13 13 9 6 -4 4 2 -6 13 -12 14 -15 23 -7 28
6 3 9 1 8 -6 -2 -6 3 -14 11 -17 8 -2 11 -1 9 4 -8 13 7 49 20 49 6 0 18 9 27
20 14 19 15 18 3 -8 -6 -15 -17 -26 -24 -23 -7 3 -14 -4 -17 -15 -7 -27 1 -24
37 14 17 17 34 32 38 32 3 0 10 4 15 9 4 5 4 7 -2 4 -5 -3 -15 0 -22 7 -19 21
8 26 30 7 16 -15 17 -14 11 3 -6 14 -4 16 6 10 8 -5 11 -4 7 2 -3 5 7 20 23
31 18 14 27 28 24 37 -7 16 43 63 60 57 5 -2 3 5 -5 14 -12 16 -12 17 3 11 10
-3 20 -1 24 5 4 6 3 8 -2 5 -6 -3 -16 -2 -24 3 -13 8 -13 11 -1 22 8 7 11 8 8
2 -3 -6 0 -11 8 -11 10 0 11 5 5 17 -9 18 5 40 25 40 5 0 3 -5 -5 -10 -8 -5
-10 -10 -4 -10 19 0 24 13 12 27 -10 12 -8 14 7 11 11 -1 20 3 21 10 1 6 2 17
3 23 0 5 6 7 13 3 7 -4 8 -3 4 5 -6 9 -11 9 -22 0 -8 -6 -14 -8 -14 -3 0 5 17
19 38 32 20 13 28 20 17 16 -11 -3 -29 -8 -40 -10 l-20 -4 20 8 c11 5 21 14
21 21 3 22 4 23 21 10 15 -13 15 -12 3 11 -12 23 -12 24 4 11 14 -12 16 -12
10 3 -5 12 -2 15 12 10 15 -5 16 -4 5 4 -8 6 -21 8 -30 5 -12 -3 -13 -2 -4 4
7 5 14 20 15 34 1 14 8 26 15 26 9 0 9 -5 2 -20 -6 -10 -8 -21 -5 -25 3 -3 6
0 6 7 0 7 4 10 8 7 5 -3 8 5 7 17 -1 12 5 28 14 35 14 12 14 13 -1 8 -10 -3
-18 -2 -19 2 0 4 -2 15 -4 25 -2 9 1 15 6 11 5 -3 9 -1 9 5 0 6 7 8 15 5 8 -4
12 -11 8 -17 -3 -6 -1 -7 6 -3 8 6 9 12 2 20 -7 9 -7 16 0 23 12 12 4 33 -13
33 -7 0 -6 -5 1 -14 9 -10 9 -16 1 -21 -6 -4 -14 -4 -17 -1 -4 3 -1 6 6 6 7 0
9 5 6 10 -4 6 -11 7 -17 4 -7 -5 -8 -2 -3 5 4 7 21 19 39 27 30 15 30 15 4 11
-15 -2 -25 0 -22 4 3 5 12 9 20 9 8 0 12 5 9 10 -4 6 -12 7 -18 3 -7 -4 -5 2
3 13 21 27 32 34 45 26 5 -3 5 1 -2 9 -15 19 -25 72 -12 64 5 -4 6 -11 3 -17
-4 -7 -2 -8 4 -4 6 4 8 14 5 23 -4 10 -2 14 4 10 7 -5 9 1 5 15 -4 16 -2 19 9
14 8 -4 1 5 -16 20 -24 22 -26 26 -8 20 13 -4 24 -2 29 5 5 8 3 9 -6 4 -10 -6
-12 -4 -7 8 3 9 1 18 -6 21 -9 3 -9 5 1 5 6 1 12 8 12 17 0 8 4 13 9 9 5 -3
13 -1 16 5 4 6 1 9 -7 8 -7 -2 -12 3 -10 10 1 8 -2 11 -8 7 -6 -3 -7 -11 -4
-17 4 -7 2 -8 -4 -4 -6 4 -8 14 -5 22 3 9 0 19 -6 24 -9 5 -8 9 4 13 9 4 13 3
10 -2 -3 -5 -1 -12 4 -15 5 -4 12 -2 15 3 4 5 2 13 -4 16 -8 5 -7 12 2 23 11
13 11 14 -8 4 -16 -9 -21 -8 -21 3 0 8 4 12 9 9 11 -7 10 3 -4 29 -10 21 -10
21 7 7 17 -14 18 -14 6 8 -6 12 -9 28 -5 34 5 8 1 9 -12 5 -12 -5 -9 1 9 14
15 11 24 26 21 31 -4 6 -2 8 3 5 6 -4 14 0 17 8 4 13 10 14 26 5 11 -6 20 -7
20 -3 0 4 7 -1 15 -11 8 -11 15 -14 15 -7 0 7 5 9 12 5 7 -4 8 -3 4 5 -4 6
-12 8 -18 5 -7 -4 -8 -2 -4 4 4 7 2 12 -5 12 -7 0 -10 3 -7 6 7 6 48 -15 61
-31 5 -6 6 -2 3 8 -3 10 -6 21 -6 23 0 3 -4 3 -8 0 -5 -3 -9 1 -9 9 0 8 4 15
9 15 4 0 8 -4 8 -10 0 -5 10 -14 22 -21 18 -10 20 -9 15 5 -6 14 3 21 26 17 4
0 7 5 7 11 1 7 7 2 15 -12 8 -14 14 -19 15 -12 0 6 7 12 16 12 14 0 14 3 4 15
-11 13 -10 14 5 9 14 -6 16 -4 10 7 -4 8 -4 11 0 6 5 -4 16 0 26 9 16 14 17
14 15 -3 -2 -10 -9 -18 -16 -18 -7 0 -15 -6 -17 -12 -6 -17 3 -16 32 3 14 9
22 20 19 25 -3 5 3 6 12 2 13 -5 15 -3 9 7 -6 9 -4 11 4 6 9 -6 8 -13 -6 -29
l-18 -22 23 19 c20 18 27 15 23 -8 -1 -5 5 -4 13 3 8 7 19 10 24 7 5 -3 8 10
7 30 -2 28 0 32 11 24 7 -6 10 -19 7 -28 -4 -13 -3 -14 5 -3 8 11 11 11 16 0
3 -8 3 -4 0 9 -3 14 -1 23 8 24 7 0 18 2 23 2 6 1 17 6 25 11 8 5 23 10 34 10
17 2 18 1 2 -11 -10 -7 -13 -15 -7 -18 5 -3 12 0 14 6 4 10 8 9 17 -2 8 -12 9
-9 4 13 -4 17 -2 27 6 27 6 0 8 -5 4 -11 -4 -7 -1 -10 7 -7 8 3 21 2 30 -3 11
-5 16 -3 16 6 0 8 -5 11 -10 8 -6 -4 -7 -1 -2 7 6 10 4 12 -11 6 -16 -6 -17
-5 -6 6 11 11 18 8 39 -17 14 -16 23 -25 20 -19 -3 6 -8 23 -11 39 -4 21 -2
25 6 17 14 -14 42 -16 34 -4 -3 5 7 8 22 7 15 -1 33 6 40 14 11 14 12 13 3 -6
-11 -22 2 -43 14 -23 4 6 11 7 17 4 5 -4 4 4 -3 17 -11 21 -10 22 2 12 10 -8
20 -9 29 -3 8 6 20 10 25 10 6 0 3 -5 -5 -10 -12 -7 -10 -9 8 -7 12 1 21 6 18
12 -2 6 3 20 11 30 14 18 15 18 9 2 -4 -13 -2 -17 6 -14 7 2 12 11 12 20 -1
13 2 14 18 6 16 -9 19 -8 13 2 -6 9 -3 11 8 6 24 -9 21 0 -4 14 -17 9 -20 8
-14 -3 7 -11 6 -11 -6 0 -12 11 -11 15 4 23 10 6 14 15 10 22 -12 20 -13 68
-1 61 7 -4 8 -2 4 5 -6 9 -11 9 -22 0 -13 -10 -13 -8 -4 15 8 21 7 28 -5 32
-8 4 -15 18 -15 33 0 15 -6 33 -12 40 -11 12 -9 13 7 7 19 -6 19 -5 2 8 -10 8
-20 20 -21 28 -1 7 -7 23 -14 35 -10 19 -10 22 2 17 16 -6 17 19 1 33 -4 4 -5
2 0 -6 5 -9 4 -12 -3 -7 -6 4 -8 14 -5 23 4 10 2 14 -4 10 -6 -4 -11 -1 -10 6
1 46 -4 68 -15 61 -10 -6 -10 -4 0 7 14 16 16 33 2 24 -5 -3 -10 2 -10 11 0 9
-15 30 -32 46 -29 26 -38 29 -78 24 -43 -5 -82 -12 -87 -16 -3 -3 -6 -4 -48
-14 -16 -5 -61 -17 -100 -29 -38 -11 -78 -22 -87 -23 -10 -1 -20 -3 -23 -4 -3
-1 -8 -3 -12 -4 -5 -1 -14 -5 -20 -9 -7 -5 -13 -6 -13 -3 0 3 -11 1 -25 -4
-14 -5 -36 -12 -48 -15 -87 -19 -123 -30 -129 -39 -4 -6 -8 -8 -8 -4 0 3 -20
0 -45 -8 -25 -7 -45 -11 -45 -9 0 2 -16 -3 -35 -11 -20 -8 -40 -12 -45 -9 -6
4 -10 1 -10 -6 0 -7 -3 -10 -6 -7 -3 3 -29 0 -57 -8 -29 -8 -53 -14 -55 -14
-1 0 3 10 9 23 12 21 11 21 -6 7 -11 -9 -16 -10 -11 -2 4 7 1 15 -8 18 -9 3
-14 10 -11 14 3 4 -5 21 -17 36 -20 25 -20 27 -3 14 18 -14 19 -13 8 1 -7 9
-10 19 -6 23 4 4 0 4 -10 0 -12 -4 -17 -1 -17 10 0 9 -6 16 -12 16 -10 0 -10
2 0 9 10 6 9 10 -7 14 -13 3 -21 13 -21 26 0 12 -7 24 -15 27 -8 3 -17 14 -20
25 -4 11 -11 17 -16 14 -8 -6 -14 16 -10 38 1 5 -2 6 -7 3 -11 -6 -63 49 -55
58 4 3 0 6 -7 6 -14 0 -70 58 -70 72 0 4 -5 8 -11 8 -10 0 -36 21 -95 78 -13
12 -27 22 -31 22 -4 0 -24 14 -43 30 -19 16 -40 30 -47 30 -6 0 -13 3 -15 8
-10 22 -265 142 -303 142 -8 0 -15 5 -15 11 0 5 -4 8 -8 5 -4 -2 -39 4 -76 15
-38 10 -87 20 -110 22 -23 1 -45 6 -51 9 -12 7 -322 8 -330 0z m2470 -1202
c-3 -5 -12 -10 -18 -10 -7 0 -6 4 3 10 19 12 23 12 15 0z m-426 -142 c12 -3
12 -6 -2 -11 -11 -4 -21 1 -28 16 -10 19 -10 20 2 11 8 -6 21 -13 28 -16z
m-424 -98 c3 -5 1 -10 -4 -10 -6 0 -11 5 -11 10 0 6 2 10 4 10 3 0 8 -4 11
-10z m-8 -336 c-3 -3 -12 -4 -19 -1 -8 3 -5 6 6 6 11 1 17 -2 13 -5z m-12 -24
c3 -5 1 -10 -4 -10 -6 0 -11 5 -11 10 0 6 2 10 4 10 3 0 8 -4 11 -10z m-11
-75 c3 -8 1 -15 -4 -15 -6 0 -10 7 -10 15 0 8 2 15 4 15 2 0 6 -7 10 -15z
m-74 -225 c0 -5 -5 -10 -11 -10 -5 0 -7 5 -4 10 3 6 8 10 11 10 2 0 4 -4 4
-10z m-90 -225 c14 -19 14 -19 -2 -6 -10 7 -18 18 -18 24 0 6 1 8 3 6 1 -2 9
-13 17 -24z m-76 -120 c3 -8 1 -15 -4 -15 -6 0 -10 7 -10 15 0 8 2 15 4 15 2
0 6 -7 10 -15z m-21 -20 c4 -8 3 -16 -1 -19 -4 -3 -9 4 -9 15 -2 23 3 25 10 4z
m-23 -15 c0 -5 -5 -10 -11 -10 -5 0 -7 5 -4 10 3 6 8 10 11 10 2 0 4 -4 4 -10z
m-15 -29 c-3 -5 -1 -13 5 -16 8 -5 7 -11 -1 -21 -9 -12 -15 -12 -27 -2 -13 11
-15 10 -9 -4 3 -9 0 -21 -7 -27 -14 -11 -26 -5 -26 13 0 6 5 4 10 -4 9 -14 11
-12 14 20 0 8 8 15 16 15 8 0 16 6 16 13 2 19 4 22 10 22 3 0 3 -4 -1 -9z
m-230 -247 c-1 -15 -9 -30 -17 -35 -15 -8 -17 1 -9 29 1 1 1 5 0 8 0 5 14 18
26 24 1 0 0 -12 0 -26z m-82 -59 c4 -8 3 -16 -1 -19 -4 -3 -9 4 -9 15 -2 23 3
25 10 4z m-73 -29 c0 -2 -7 -7 -16 -10 -8 -3 -12 -2 -9 4 6 10 25 14 25 6z
m-100 -91 c0 -5 -5 -3 -10 5 -5 8 -10 20 -10 25 0 6 5 3 10 -5 5 -8 10 -19 10
-25z m-26 -17 c-8 -13 -21 -9 -28 8 -3 8 -2 12 4 9 6 -3 10 0 10 7 0 10 3 9 9
-2 6 -8 7 -18 5 -22z m-184 -71 c0 -5 -4 -5 -10 -2 -5 3 -10 14 -10 23 0 15 2
15 10 2 5 -8 10 -19 10 -23z m-90 -1 c-7 -7 -13 -7 -20 0 -6 6 -3 10 10 10 13
0 16 -4 10 -10z m21 -9 c-10 -9 -11 -8 -5 6 3 10 9 15 12 12 3 -3 0 -11 -7
-18z m-117 -5 c2 -4 -5 -9 -17 -9 -17 -2 -19 0 -7 7 18 12 18 12 24 2z"/>
<path d="M3908 2673 c7 -3 16 -2 19 1 4 3 -2 6 -13 5 -11 0 -14 -3 -6 -6z"/>
<path d="M3925 2300 c-3 -6 1 -7 9 -4 18 7 21 14 7 14 -6 0 -13 -4 -16 -10z"/>
<path d="M3850 2280 c0 -5 5 -10 11 -10 5 0 7 5 4 10 -3 6 -8 10 -11 10 -2 0
-4 -4 -4 -10z"/>
<path d="M3745 2269 c-5 -8 36 -21 44 -14 2 3 -1 5 -8 5 -7 0 -10 4 -7 8 3 5
-2 9 -10 9 -8 0 -17 -4 -19 -8z"/>
<path d="M3714 2251 c16 -18 36 -20 36 -5 0 3 -4 2 -10 -1 -5 -3 -10 -2 -10 3
0 6 -8 13 -17 16 -15 6 -15 5 1 -13z"/>
<path d="M3550 2216 c-6 -8 -18 -12 -26 -9 -8 3 -14 1 -14 -4 0 -4 15 -9 33
-9 17 -1 26 1 19 3 -10 4 -10 8 -1 19 6 8 9 14 6 14 -2 0 -10 -6 -17 -14z"/>
<path d="M3043 2070 c-16 -20 -18 -27 -7 -27 8 0 12 2 9 5 -4 5 20 32 29 32 3
0 3 -7 0 -15 -4 -8 -2 -15 3 -15 13 0 13 38 0 43 -7 2 -22 -8 -34 -23z"/>
<path d="M3030 2020 c0 -5 5 -10 11 -10 5 0 7 5 4 10 -3 6 -8 10 -11 10 -2 0
-4 -4 -4 -10z"/>
<path d="M2975 1600 c-3 -5 -2 -10 4 -10 5 0 13 5 16 10 3 6 2 10 -4 10 -5 0
-13 -4 -16 -10z"/>
<path d="M2925 1450 c-3 -5 -1 -10 4 -10 6 0 11 5 11 10 0 6 -2 10 -4 10 -3 0
-8 -4 -11 -10z"/>
<path d="M2530 799 c0 -5 5 -7 10 -4 6 3 10 8 10 11 0 2 -4 4 -10 4 -5 0 -10
-5 -10 -11z"/>
<path d="M670 759 c0 -5 5 -7 10 -4 6 3 10 8 10 11 0 2 -4 4 -10 4 -5 0 -10
-5 -10 -11z"/>
<path d="M2220 605 c0 -8 5 -17 12 -21 6 -4 8 -3 4 4 -3 6 -2 13 4 17 5 3 10
1 10 -4 0 -6 5 -11 12 -11 9 0 9 3 0 12 -17 17 -42 19 -42 3z"/>
<path d="M916 602 c-3 -5 1 -9 9 -9 8 0 12 4 9 9 -3 4 -7 8 -9 8 -2 0 -6 -4
-9 -8z"/>
<path d="M1082 524 c-7 -8 -8 -14 -3 -14 10 0 25 19 20 25 -2 1 -10 -3 -17
-11z"/>
<path d="M1286 465 c-11 -8 -15 -15 -9 -15 6 0 16 7 23 15 16 19 11 19 -14 0z"/>
<path d="M1786 442 c-3 -5 1 -9 9 -9 8 0 12 4 9 9 -3 4 -7 8 -9 8 -2 0 -6 -4
-9 -8z"/>
<path d="M1610 425 c0 -8 4 -15 10 -15 5 0 7 7 4 15 -4 8 -8 15 -10 15 -2 0
-4 -7 -4 -15z"/>
<path d="M1639 428 c17 -22 27 -23 35 -2 5 13 4 14 -7 6 -10 -9 -17 -8 -27 1
-12 10 -12 9 -1 -5z"/>
</g>
</svg>
